# xmcd
#
# Track frame offsets:
#	150
#	17273
#	36852
#	52870
#	66562
#	80729
#	99771
#	117313
#	133932
#	153280
#	170010
#	188112
#	203264
#	217313
#	233309
#
# Disc length: 3328 seconds
#
# Revision: 0
# Processed by: cddbd v1.5.2PL0 Copyright (c) Steve Scherf et al.
# Submitted via: audiograbber 1.83.01
#
DISCID=c20cfe0f
DTITLE=Chartbuster Karaoke - Essential 4 Disk 18
DYEAR=1900
DGENRE=Karaoke
TTITLE0=Mickey Gilley - Talk To Me
TTITLE1=Juice Newton - You Make Me Want To Make You Mine
TTITLE2=Vern Gosdin - If You're Gonna Do Me Wrong (Do It Right)
TTITLE3=Forester Sisters - Mama's Never Seen Those Eyes
TTITLE4=George Jones - Tennessee Whiskey
TTITLE5=Crystal Gayle - Cry
TTITLE6=Alabama - Feels So Right
TTITLE7=Kathy Mattea - Love At The Five and Dime
TTITLE8=Ronnie Milsap - She Keeps The Home Fires Burning
TTITLE9=Crystal Gayle - Makin' Up For Lost Time
TTITLE10=Gary Morris - 100% Chance Of Rain
TTITLE11=Tanya Tucker - Just Another Love
TTITLE12=George Strait - Nobody In His Right Mind Would've Left Her
TTITLE13=Holly Dunn - Only When I Love
TTITLE14=The Judds - Maybe Your Baby's Got The Blues
EXTD=
EXTT0=
EXTT1=
EXTT2=
EXTT3=
EXTT4=
EXTT5=
EXTT6=
EXTT7=
EXTT8=
EXTT9=
EXTT10=
EXTT11=
EXTT12=
EXTT13=
EXTT14=
PLAYORDER=
